<?xml version="1.0" encoding="UTF-8"?>
<!-- ARXANGEL favicon — bold mark on a dark rounded square, tuned to read at 16px. -->
<svg xmlns="http://www.w3.org/2000/svg" viewBox="0 0 128 128" width="128" height="128">
  <defs>
    <linearGradient id="g" x1="64" y1="20" x2="64" y2="112" gradientUnits="userSpaceOnUse">
      <stop offset="0" stop-color="#FFEAA6"/>
      <stop offset="1" stop-color="#D6A24E"/>
    </linearGradient>
  </defs>
  <rect width="128" height="128" rx="28" fill="#0b0805"/>
  <rect x="2" y="2" width="124" height="124" rx="26" fill="none" stroke="#E5BD6D" stroke-opacity="0.25" stroke-width="2"/>
  <circle cx="64" cy="62" r="44" fill="none" stroke="url(#g)" stroke-width="3" opacity="0.7"/>
  <!-- wings -->
  <g fill="url(#g)">
    <path d="M62 74 Q84 52 104 50 Q94 57 92 59 Q88 57 86 62 Q80 60 78 65 Q72 64 70 69 Q65 70 62 74 Z"/>
    <path d="M62 74 Q84 52 104 50 Q94 57 92 59 Q88 57 86 62 Q80 60 78 65 Q72 64 70 69 Q65 70 62 74 Z"
          transform="matrix(-1 0 0 1 128 0)"/>
  </g>
  <!-- spire -->
  <path d="M64 40 L70 66 L64 98 L58 66 Z" fill="url(#g)"/>
  <!-- apex star -->
  <path d="M64 22 C65 31 66 33 75 35 C66 37 65 39 64 48 C63 39 62 37 53 35 C62 33 63 31 64 22 Z" fill="url(#g)"/>
</svg>
